<?xml version="1.0" encoding="UTF-8"?>
<svg version="1.1" xmlns="http://www.w3.org/2000/svg" width="1080" height="1080">
<path d="M0 0 C5.14188003 0.00481129 10.28372553 -0.0078468 15.42559373 -0.01801741 C25.45138832 -0.0350558 35.47711983 -0.03607718 45.50292511 -0.03080451 C53.66313297 -0.02673458 61.82332244 -0.0282395 69.98352945 -0.03355277 C71.15254725 -0.03430119 72.32156505 -0.03504961 73.52600763 -0.03582071 C75.90210288 -0.03735245 78.27819812 -0.03889079 80.65429335 -0.04043568 C102.84426384 -0.0541057 125.03419889 -0.04876116 147.22416853 -0.03725047 C167.45438765 -0.02731633 187.68451533 -0.04027176 207.91472036 -0.06418466 C228.77705152 -0.08865574 249.63934024 -0.09816439 270.50168544 -0.09153193 C282.17848753 -0.08805842 293.85521934 -0.09014755 305.53201044 -0.10778296 C315.46779014 -0.12260537 325.40345002 -0.12301036 335.33922762 -0.10571205 C340.39235536 -0.09728288 345.44526997 -0.09485069 350.49838579 -0.1103636 C405.03868143 -0.26587405 462.54733516 6.63468051 503.2992357 46.95370805 C504.49999742 48.16800493 504.49999742 48.16800493 505.72501695 49.40683305 C506.74982164 50.37943071 506.74982164 50.37943071 507.79532945 51.3716768 C542.20194595 84.40464511 556.79010557 132.74348528 557.95953934 179.39830936 C558.16558219 190.27652253 558.13830445 201.1574062 558.11719096 212.03707671 C558.11030864 217.30028354 558.12092638 222.56346241 558.12913072 227.82666337 C558.14237355 238.09764989 558.13963297 248.36857013 558.1308928 258.6395591 C558.12407944 266.99678778 558.12321519 275.35399806 558.12646425 283.71122873 C558.12692395 284.90692163 558.12738365 286.10261454 558.12785728 287.33454056 C558.12881658 289.76459786 558.12978923 292.19465516 558.13077505 294.62471246 C558.13930116 317.33674398 558.12953845 340.048739 558.11337395 362.76076453 C558.09997159 382.19252893 558.10230362 401.62423954 558.11613023 421.05600297 C558.1322324 443.69597016 558.13847925 466.33590547 558.12929344 488.97587758 C558.12833793 491.39600276 558.12739481 493.81612795 558.12646425 496.23625314 C558.12600142 497.42658223 558.12553859 498.61691131 558.12506174 499.84331097 C558.12248586 508.17812266 558.12681235 516.51291389 558.13390291 524.84772241 C558.14236979 535.02268217 558.13992975 545.19757262 558.12406068 555.37252457 C558.11624738 560.55065913 558.11296575 565.7286787 558.12300813 570.90681207 C558.18526442 605.99640806 556.75682337 639.32283452 543.54532945 672.32284868 C542.82491671 674.15304009 542.16088234 676.00521445 541.50626695 677.85995805 C535.04893411 694.99672599 522.96794205 712.81375448 508.72501695 724.40683305 C508.39501695 725.06683305 508.06501695 725.72683305 507.72501695 726.40683305 C507.06501695 726.40683305 506.40501695 726.40683305 505.72501695 726.40683305 C505.4620482 727.00237993 505.19907945 727.5979268 504.92814195 728.21152055 C497.56063615 741.6548266 474.97863605 752.17727094 461.72501695 758.40683305 C460.55197008 758.96499712 459.3789232 759.52316118 458.17032945 760.0982393 C448.27979474 764.68546132 438.29866816 767.80786314 427.72501695 770.40683305 C426.61255601 770.69300493 425.50009508 770.9791768 424.3539232 771.27402055 C399.63204119 777.14433281 374.51148557 776.84297409 349.28172064 776.78434801 C343.99413535 776.77539847 338.70657189 776.78397991 333.41898668 776.79021013 C323.09713343 776.79963654 312.77535072 776.79315368 302.45350277 776.78094719 C290.41291394 776.76724442 278.37234141 776.76897216 266.33174676 776.77108052 C244.84311215 776.77426109 223.35451083 776.76265403 201.86588609 776.74301469 C181.04751642 776.72399315 160.22918571 776.7169339 139.41080797 776.72250688 C116.68820248 776.7285717 93.96561406 776.72837636 71.24300998 776.71702105 C68.81826091 776.71581386 66.39351183 776.71460787 63.96876276 776.71340311 C62.77600088 776.71279957 61.583239 776.71219603 60.35433282 776.7115742 C51.97381749 776.70770493 43.59330854 776.70808474 35.21279275 776.70998895 C24.99829727 776.71211612 14.7838358 776.70684678 4.56934988 776.6923754 C-0.63573101 776.68515872 -5.8407625 776.68103109 -11.04584754 776.68561876 C-15.81920056 776.68972349 -20.59245201 776.68445009 -25.3657897 776.67199268 C-27.08334837 776.66908793 -28.80091675 776.66946332 -30.5184728 776.67363576 C-41.28317487 776.69739274 -51.61721452 775.96375439 -62.27498305 774.40683305 C-64.15079598 774.16601266 -66.0269938 773.92812805 -67.9038893 773.69589555 C-113.00065178 767.74599802 -154.10653621 746.46399885 -182.39998305 710.15683305 C-196.1677437 692.0569988 -206.44854843 670.34164575 -212.27498305 648.40683305 C-212.5379518 647.45808305 -212.80092055 646.50933305 -213.07185805 645.53183305 C-219.16988197 621.63753524 -218.71873807 597.2867681 -218.6818161 572.82375276 C-218.67703859 567.47925887 -218.6896345 562.13479938 -218.69983351 556.79031694 C-218.71693958 546.34819467 -218.71787842 535.90613279 -218.71262061 525.46400017 C-218.70856133 516.96509515 -218.71004323 508.46620782 -218.71536887 499.96730363 C-218.71611729 498.75266064 -218.71686571 497.53801765 -218.71763681 496.2865673 C-218.71916847 493.81810625 -218.72070682 491.3496452 -218.72225178 488.88118416 C-218.73594789 465.78420345 -218.73056012 442.6872567 -218.71906657 419.59027678 C-218.70914336 398.52530491 -218.72206428 377.460421 -218.74600076 356.39546269 C-218.77046849 334.69720764 -218.77998047 312.99899342 -218.77334803 291.30072486 C-218.76987202 279.14647779 -218.77197976 266.99229823 -218.78959906 254.83806169 C-218.80441768 244.48851027 -218.80483197 234.13907389 -218.78752815 223.7895245 C-218.77909338 218.52380935 -218.77668077 213.25829883 -218.7921797 207.99259508 C-218.94538381 151.95255902 -211.92474729 97.48290481 -171.27498305 55.40683305 C-170.09944599 54.01846191 -168.9317459 52.62338487 -167.77498305 51.21933305 C-163.5184291 46.29447957 -158.37837044 42.41126092 -153.27498305 38.40683305 C-152.51830336 37.77777055 -151.76162367 37.14870805 -150.9820143 36.50058305 C-138.86834999 27.13128425 -125.47597506 20.01630933 -111.27498305 14.40683305 C-110.06197524 13.92601274 -108.84896742 13.44519243 -107.5992018 12.9498018 C-98.99949261 9.72612826 -90.23369118 7.39088889 -81.27498305 5.40683305 C-80.24293137 5.17486839 -80.24293137 5.17486839 -79.19003016 4.93821758 C-53.2916826 -0.57283295 -26.33341681 -0.04169343 0 0 Z " fill="#225FF5" transform="translate(370.274983048439,151.5931669473648)"/>
<path d="M0 0 C0.02353633 7.42579352 0.04111936 14.85158302 0.05181217 22.27740574 C0.05695324 25.72832654 0.06388334 29.1792212 0.07543945 32.63012695 C0.12112316 46.65211173 0.09054926 60.64053815 -0.6111908 74.64813232 C-1.11527045 84.77909549 -1.27840259 94.91206941 -1.4458313 105.05331421 C-1.75042408 123.37984677 -2.13684752 141.69014837 -3 160 C-3.73186523 160.30067383 -4.46373047 160.60134766 -5.21777344 160.91113281 C-48.21838583 178.59525162 -91.0693657 196.85316381 -132 219 C-132.92780273 219.49951172 -133.85560547 219.99902344 -134.81152344 220.51367188 C-137.77257124 222.10890831 -140.73068814 223.70942702 -143.6875 225.3125 C-144.59669189 225.80435791 -145.50588379 226.29621582 -146.44262695 226.80297852 C-151.75017434 229.69778055 -156.90562147 232.74410499 -162 236 C-161.27425781 236.72445312 -160.54851562 237.44890625 -159.80078125 238.1953125 C-158.06369958 239.93481687 -156.33104865 241.67877282 -154.60546875 243.4296875 C-149.02806166 249.07016705 -143.35874193 254.49810477 -137.171875 259.46875 C-135.7517941 260.61012343 -134.37112845 261.8002626 -133 263 C-133 263.66 -133 264.32 -133 265 C-132.41863281 265.27585937 -131.83726562 265.55171875 -131.23828125 265.8359375 C-125.84877229 268.63885839 -121.41663198 272.32126304 -117.5625 277 C-114.51096219 280.66184537 -111.27474014 282.92912439 -107.2578125 285.44140625 C-104.10700427 287.61644515 -101.60093914 290.24658113 -98.95703125 293 C-96.46877172 295.54289198 -93.81482747 297.84314573 -91.12109375 300.1640625 C-85.10604768 305.37045597 -79.25407697 310.76633925 -73.375 316.125 C-67.91739206 321.08784571 -62.39483264 325.96061178 -56.78125 330.74609375 C-55.58319225 331.7680638 -54.3852799 332.79020431 -53.1875 333.8125 C-52.27846924 334.58823364 -52.27846924 334.58823364 -51.35107422 335.37963867 C-47.60967738 338.5847653 -43.93901522 341.85193729 -40.3125 345.1875 C-36.72032252 348.48870581 -33.04949941 351.62722293 -29.25 354.6875 C-25.55001695 357.67152588 -22.18248888 360.75640378 -18.88671875 364.171875 C-14.44413437 368.47649092 -9.38285825 373.25217052 -3.86938477 376.10083008 C-1.43108592 378.57797867 -1.52333537 380.54266887 -1.49577332 383.92230225 C-1.51005875 384.74071594 -1.52434418 385.55912964 -1.5390625 386.40234375 C-1.53928154 387.71540497 -1.53928154 387.71540497 -1.539505 389.05499268 C-1.54699125 392.01634 -1.58539794 394.97641897 -1.625 397.9375 C-1.63954865 400.05704222 -1.65327976 402.17659018 -1.66625977 404.29614258 C-1.87355631 429.43352206 -2.75004905 454.56333853 -3.55661392 479.68709373 C-3.99495324 493.37298697 -4.33687134 507.06012916 -4.625 520.75 C-4.64537323 521.71014008 -4.66574646 522.67028015 -4.68673706 523.65951538 C-4.79475738 528.77294171 -4.89936481 533.88642315 -5 539 C-8.46743471 537.35611492 -10.92309063 535.42784132 -13.75 532.8125 C-14.63816406 531.99910156 -15.52632812 531.18570313 -16.44140625 530.34765625 C-17.28574219 529.57292969 -18.13007812 528.79820312 -19 528 C-22.79405973 524.62663683 -26.63891438 521.3112414 -30.48046875 517.9921875 C-31.77873685 516.86989694 -33.07691125 515.74749799 -34.375 514.625 C-35.35811157 513.77518555 -35.35811157 513.77518555 -36.36108398 512.90820312 C-40.02979711 509.73002323 -43.66076654 506.51815187 -47.25 503.25 C-50.50010013 500.2992512 -53.82617333 497.49702373 -57.25 494.75 C-62.31890774 490.65478075 -67.05356762 486.2766543 -71.79223633 481.81103516 C-76.23999284 477.64298481 -80.85162279 473.79614139 -85.609375 469.984375 C-88.36591717 467.69626484 -90.85085901 465.23933124 -93.33984375 462.66796875 C-95.70223393 460.29446144 -98.23070352 458.1353429 -100.765625 455.94921875 C-103.37851376 453.66979306 -105.93930021 451.33787647 -108.5 449 C-111.59731967 446.17422616 -114.7040415 443.36781221 -117.875 440.625 C-123.13982187 436.04782833 -128.22495712 431.27406384 -133.34179688 426.53320312 C-135.88665292 424.18018546 -138.44312789 421.8399434 -141 419.5 C-142.48246729 418.14150296 -143.9646653 416.78271273 -145.44677734 415.42382812 C-146.52235297 414.43785563 -147.59821885 413.45219971 -148.67431641 412.46679688 C-154.3549481 407.26183544 -160.01357486 402.06073174 -165.41015625 396.55859375 C-167.12867317 394.87385603 -168.92107285 393.31397191 -170.75 391.75 C-175.20406047 387.92107082 -179.28477011 383.74770989 -183.38671875 379.55078125 C-185.94815861 376.9561364 -185.94815861 376.9561364 -188.83203125 374.79296875 C-189.90517578 373.90544922 -189.90517578 373.90544922 -191 373 C-191 372.34 -191 371.68 -191 371 C-191.99 370.67 -192.98 370.34 -194 370 C-194 369.34 -194 368.68 -194 368 C-194.59296875 367.73678955 -195.1859375 367.4735791 -195.796875 367.20239258 C-198.10164837 365.94452369 -199.479076 364.68604045 -201.25 362.76171875 C-201.85231445 362.11315918 -202.45462891 361.46459961 -203.07519531 360.79638672 C-204.02797363 359.75248779 -204.02797363 359.75248779 -205 358.6875 C-205.66354492 357.96836426 -206.32708984 357.24922852 -207.01074219 356.50830078 C-208.36668169 355.03822825 -209.72053018 353.56622426 -211.07226562 352.09228516 C-212.78940546 350.22857082 -214.52174766 348.38162203 -216.265625 346.54296875 C-223.34312052 339.05384508 -229.79728335 331.22578815 -236 323 C-236.59296875 322.30777344 -237.1859375 321.61554688 -237.796875 320.90234375 C-240.984943 316.82770628 -241.2249296 313.41748898 -241.171875 308.30078125 C-241.16534409 307.61108749 -241.15881317 306.92139374 -241.15208435 306.21080017 C-241.02346446 296.64304976 -240.59234818 287.08052732 -240.20263672 277.52072144 C-239.47182552 259.48614089 -238.86633777 241.45721137 -238.5526123 223.41043091 C-238.4101664 215.36132815 -238.23836265 207.31276885 -238.06781006 199.26422119 C-238.02100813 197.01128339 -237.97590657 194.75830984 -237.93218994 192.50531006 C-237.79033959 185.22222311 -237.61838562 177.94088685 -237.40771484 170.65945435 C-237.34499701 168.33131607 -237.29217607 166.00288687 -237.25 163.67428589 C-236.82017656 140.59331309 -236.82017656 140.59331309 -230 132 C-229.01773437 130.55947266 -229.01773437 130.55947266 -228.015625 129.08984375 C-200.35423685 95.36987722 -157.47574241 71.74617579 -118.7734375 52.87109375 C-115.55868239 51.29690933 -112.41234716 49.61766042 -109.26831055 47.9074707 C-97.16845809 41.34307754 -84.64248476 35.67758854 -72.12203979 29.96948242 C-69.7586975 28.88975771 -67.39809518 27.80414847 -65.03735352 26.71875 C-52.53541199 20.985561 -39.95140938 15.47363586 -27.27905273 10.12792969 C-24.24525906 8.84660065 -21.21540694 7.55622397 -18.18554688 6.265625 C-16.2450212 5.44476966 -14.30427479 4.6244359 -12.36328125 3.8046875 C-11.46346024 3.42045624 -10.56363922 3.03622498 -9.6365509 2.64035034 C-8.80685287 2.29223297 -7.97715485 1.9441156 -7.12231445 1.58544922 C-6.39591263 1.27807831 -5.6695108 0.9707074 -4.9210968 0.65402222 C-3 0 -3 0 0 0 Z " fill="#FEFEFE" transform="translate(660,307)"/>
<path d="M0 0 C5.46178002 3.79496977 10.12705712 8.00737777 14.76953125 12.76171875 C19.08117088 17.08846045 23.74168747 20.99024895 28.5 24.8125 C29.325 25.534375 30.15 26.25625 31 27 C31 27.66 31 28.32 31 29 C31.58136719 29.27585937 32.16273438 29.55171875 32.76171875 29.8359375 C38.15122771 32.63885839 42.58336802 36.32126304 46.4375 41 C49.48903781 44.66184537 52.72525986 46.92912439 56.7421875 49.44140625 C59.89299573 51.61644515 62.39906086 54.24658113 65.04296875 57 C67.53122828 59.54289198 70.18517253 61.84314573 72.87890625 64.1640625 C78.89395232 69.37045597 84.74592303 74.76633925 90.625 80.125 C96.08260794 85.08784571 101.60516736 89.96061178 107.21875 94.74609375 C108.41680775 95.7680638 109.6147201 96.79020431 110.8125 97.8125 C111.41852051 98.32965576 112.02454102 98.84681152 112.64892578 99.37963867 C116.39032262 102.5847653 120.06098478 105.85193729 123.6875 109.1875 C127.27967748 112.48870581 130.95050059 115.62722293 134.75 118.6875 C138.44998305 121.67152588 141.81751112 124.75640378 145.11328125 128.171875 C149.55586563 132.47649092 154.61714175 137.25217052 160.13061523 140.10083008 C162.56891408 142.57797867 162.47666463 144.54266887 162.50422668 147.92230225 C162.48994125 148.74071594 162.47565582 149.55912964 162.4609375 150.40234375 C162.46071846 151.71540497 162.46071846 151.71540497 162.460495 153.05499268 C162.45300875 156.01634 162.41460206 158.97641897 162.375 161.9375 C162.36045135 164.05704222 162.34672024 166.17659018 162.33374023 168.29614258 C162.12644369 193.43352206 161.24995095 218.56333853 160.44338608 243.68709373 C160.00504676 257.37298697 159.66312866 271.06012916 159.375 284.75 C159.34444016 286.19021011 159.34444016 286.19021011 159.31326294 287.65951538 C159.20524262 292.77294171 159.10063519 297.88642315 159 303 C155.53256529 301.35611492 153.07690937 299.42784132 150.25 296.8125 C149.36183594 295.99910156 148.47367188 295.18570312 147.55859375 294.34765625 C146.29208984 293.18556641 146.29208984 293.18556641 145 292 C141.20594027 288.62663683 137.36108562 285.3112414 133.51953125 281.9921875 C132.22126315 280.86989694 130.92308875 279.74749799 129.625 278.625 C128.64188843 277.77518555 128.64188843 277.77518555 127.63891602 276.90820312 C123.97020289 273.73002323 120.33923346 270.51815187 116.75 267.25 C113.49989987 264.2992512 110.17382667 261.49702373 106.75 258.75 C101.68109226 254.65478075 96.94643238 250.2766543 92.20776367 245.81103516 C87.76000716 241.64298481 83.14837721 237.79614139 78.390625 233.984375 C75.63408283 231.69626484 73.14914099 229.23933124 70.66015625 226.66796875 C68.29776607 224.29446144 65.76929648 222.1353429 63.234375 219.94921875 C60.62148624 217.66979306 58.06069979 215.33787647 55.5 213 C52.40268033 210.17422616 49.2959585 207.36781221 46.125 204.625 C40.86017813 200.04782833 35.77504288 195.27406384 30.65820312 190.53320312 C28.11334708 188.18018546 25.55687211 185.8399434 23 183.5 C21.51753271 182.14150296 20.0353347 180.78271273 18.55322266 179.42382812 C17.47764703 178.43785563 16.40178115 177.45219971 15.32568359 176.46679688 C9.6450519 171.26183544 3.98642514 166.06073174 -1.41015625 160.55859375 C-3.12867317 158.87385603 -4.92107285 157.31397191 -6.75 155.75 C-11.20406047 151.92107082 -15.28477011 147.74770989 -19.38671875 143.55078125 C-21.94815861 140.9561364 -21.94815861 140.9561364 -24.83203125 138.79296875 C-25.90517578 137.90544922 -25.90517578 137.90544922 -27 137 C-27 136.34 -27 135.68 -27 135 C-27.99 134.67 -28.98 134.34 -30 134 C-30 133.34 -30 132.68 -30 132 C-30.88945312 131.60518433 -30.88945312 131.60518433 -31.796875 131.20239258 C-34.10164837 129.94452369 -35.479076 128.68604045 -37.25 126.76171875 C-37.85231445 126.11315918 -38.45462891 125.46459961 -39.07519531 124.79638672 C-39.71038086 124.1004541 -40.34556641 123.40452148 -41 122.6875 C-41.66354492 121.96836426 -42.32708984 121.24922852 -43.01074219 120.50830078 C-44.36668169 119.03822825 -45.72053018 117.56622426 -47.07226562 116.09228516 C-48.78940546 114.22857082 -50.52174766 112.38162203 -52.265625 110.54296875 C-59.34312052 103.05384508 -65.79728335 95.22578815 -72 87 C-72.59296875 86.30777344 -73.1859375 85.61554688 -73.796875 84.90234375 C-78.70747517 78.62615533 -77.41217851 70.54744643 -77 63 C-76.34 64.32 -75.68 65.64 -75 67 C-74.6596875 66.32195312 -74.319375 65.64390625 -73.96875 64.9453125 C-65.22233086 48.15032681 -51.90572249 36.23467406 -37 25 C-36.41089844 24.55011719 -35.82179688 24.10023438 -35.21484375 23.63671875 C-25.46520667 16.20128124 -15.28044353 9.58738877 -4.84667969 3.15405273 C-3.21208882 2.13254149 -1.60380204 1.06920136 0 0 Z " fill="#C0D0FC" transform="translate(496,543)"/>
<path d="M0 0 C12.02088308 8.83213738 22.46372277 21.25292008 25.125 36.25 C26.50151973 50.56018671 26.415694 67.28350856 18.48046875 79.85546875 C16.80112167 81.81533882 15.0285759 83.5108799 13.125 85.25 C12.01083554 86.59595281 10.9068345 87.95037541 9.8125 89.3125 C1.01585976 99.25737425 -12.68889317 106.53343402 -26.00927734 107.38671875 C-36.8905415 107.85309067 -46.71999519 107.63762436 -56.875 103.25 C-57.803125 102.86070312 -58.73125 102.47140625 -59.6875 102.0703125 C-74.59456837 94.9132257 -83.67886776 81.47063392 -89.8125 66.5625 C-94.55236114 52.40548902 -92.5074882 36.85565903 -86.08203125 23.5234375 C-77.72893085 7.79041345 -66.25206462 -2.57759628 -49.16796875 -7.90625 C-32.00447328 -11.85708459 -14.90505793 -9.04119632 0 0 Z " fill="#FDFDFE" transform="translate(509.875,242.75)"/>
<path d="M0 0 C0.33 0 0.66 0 1 0 C1.02294557 52.56161577 1.04053835 105.12323103 1.05106533 157.68485084 C1.05231587 163.90619288 1.05361021 170.12753492 1.05493164 176.34887695 C1.05532511 178.20652213 1.05532511 178.20652213 1.05572652 180.10169549 C1.06006441 200.09006949 1.06794152 220.07844058 1.0771528 240.06681287 C1.08654182 260.61398752 1.09206667 281.16116066 1.09408849 301.70833737 C1.09545287 314.36208031 1.09974411 327.01581503 1.10791647 339.66955543 C1.11324883 348.37545701 1.11478972 357.0813544 1.11350138 365.78725749 C1.11286802 370.79173479 1.11375942 375.79619784 1.11920547 380.80067253 C1.13713809 398.29772661 1.13629689 415.79420937 0.68081092 433.28652591 C0.62800863 435.32710933 0.58220515 437.36787022 0.53671938 439.40862983 C0.01094649 456.58773109 -4.8351366 472.06843088 -11.1796875 487.91601562 C-11.90010024 489.74620704 -12.56413461 491.5983814 -13.21875 493.453125 C-19.67608285 510.58989294 -31.7570749 528.40692143 -46 540 C-46.33 540.66 -46.66 541.32 -47 542 C-47.66 542 -48.32 542 -49 542 C-49.26296875 542.59554687 -49.5259375 543.19109375 -49.796875 543.8046875 C-57.16438081 557.24799355 -79.7463809 567.77043789 -93 574 C-94.17304687 574.55816406 -95.34609375 575.11632812 -96.5546875 575.69140625 C-116.88504619 585.1206102 -138.85838911 589.67530744 -161.18164062 590.55540466 C-162.75494015 590.61863612 -162.75494015 590.61863612 -164.3600235 590.68314499 C-174.93964892 591.07965628 -185.50806353 591.13421192 -196.09375 591.11352539 C-198.17608133 591.11324221 -200.25841275 591.1134038 -202.34074402 591.1139679 C-207.90733614 591.11425076 -213.47390599 591.10843799 -219.04049301 591.10139394 C-224.89003125 591.09507403 -230.7395702 591.09454985 -236.58911133 591.09336853 C-247.6274739 591.09028037 -258.66582637 591.08210146 -269.70418453 591.07201904 C-282.28732983 591.06077907 -294.87047565 591.05532773 -307.45362473 591.05032361 C-333.30242205 591.03991628 -359.15121045 591.02236638 -385 591 C-385.33 590.34 -385.66 589.68 -386 589 C-384.27500778 588.99365209 -384.27500778 588.99365209 -382.51516724 588.98717594 C-355.15804085 588.88629277 -327.8009368 588.78054481 -300.44385219 588.66888306 C-297.06966462 588.65511505 -293.69547689 588.64138772 -290.32128906 588.62768555 C-289.31376611 588.62359309 -289.31376611 588.62359309 -288.28588915 588.61941796 C-277.43940935 588.57545743 -266.59291961 588.53478466 -255.74642253 588.49534739 C-244.59988806 588.45474524 -233.45337162 588.41049299 -222.30686378 588.36312145 C-216.05323502 588.33665803 -209.79960956 588.31180965 -203.54595947 588.29092598 C-197.64943419 588.27118254 -191.75294327 588.24698895 -185.85644913 588.21950912 C-183.70234941 588.21023153 -181.54824221 588.20252398 -179.39413071 588.19658089 C-167.55537038 588.1629366 -155.80649226 587.92266091 -144 587 C-143.67 585.68 -143.34 584.36 -143 583 C-142.21496094 582.87882813 -141.42992187 582.75765625 -140.62109375 582.6328125 C-134.94364463 581.72720712 -129.50825931 580.67215015 -124 579 C-121.91958774 578.4472203 -119.83595783 577.90647012 -117.75 577.375 C-116.73421875 577.11460937 -115.7184375 576.85421875 -114.671875 576.5859375 C-112 576 -112 576 -109 576 C-109 575.01 -109 574.02 -109 573 C-108.32195312 572.75765625 -107.64390625 572.5153125 -106.9453125 572.265625 C-103.95865185 571.19009623 -100.97894474 570.09670704 -98 569 C-97.16339844 568.69964844 -96.32679688 568.39929688 -95.46484375 568.08984375 C-82.68318742 563.28892893 -71.70597488 555.42348838 -61.27734375 546.73046875 C-59 545 -59 545 -57 545 C-57 544.34 -57 543.68 -57 543 C-55.6015625 541.66015625 -55.6015625 541.66015625 -53.625 540.0625 C-46.36640061 533.88881582 -40.26081419 526.92382964 -35 519 C-34.00240095 517.9976048 -33.00284493 516.99714695 -32 516 C-30.9063313 514.13625584 -30.9063313 514.13625584 -30 512.125 C-28.4841672 508.96701499 -26.80295045 506.00491742 -25 503 C-23.62469707 500.34763007 -22.29798938 497.69015465 -21 495 C-20.43667969 493.83339844 -19.87335938 492.66679688 -19.29296875 491.46484375 C-16.09815834 484.77931295 -12.977625 478.1625521 -11 471 C-10.75765625 470.13761719 -10.5153125 469.27523438 -10.265625 468.38671875 C-6.50045504 454.1904912 -4.66519848 440.09360702 -3.64624023 425.46606445 C-3.57477783 424.44085693 -3.50331543 423.41564941 -3.4296875 422.359375 C-3.34050049 420.98990723 -3.34050049 420.98990723 -3.24951172 419.59277344 C-3 417 -3 417 -2.49289751 414.76359272 C-1.91539161 411.52561513 -1.86991466 408.479923 -1.86412811 405.18974304 C-1.86158549 404.51420747 -1.85904287 403.83867191 -1.8564232 403.14266557 C-1.84909257 400.87463694 -1.8488278 398.60666271 -1.84851074 396.33862305 C-1.84466046 394.69777638 -1.84037294 393.05693069 -1.83568525 391.4160862 C-1.82404374 386.90325363 -1.81856069 382.39043116 -1.81405044 377.8775866 C-1.80810178 373.01166046 -1.79643363 368.14574776 -1.78541565 363.27983093 C-1.76706004 354.84506586 -1.75221647 346.41030048 -1.73963928 337.9755249 C-1.72134307 325.76605655 -1.69667716 313.55660734 -1.67026538 301.34715414 C-1.62745768 281.52001651 -1.58835047 261.69287358 -1.55224609 241.86572266 C-1.55008329 240.67870491 -1.54792049 239.49168715 -1.54569215 238.26869917 C-1.53036864 229.84579961 -1.51517431 221.42289983 -1.5 213 C-1.48268381 203.39241518 -1.46529523 193.7848305 -1.44775391 184.17724609 C-1.44559504 182.99409872 -1.44343617 181.81095134 -1.44121188 180.59195101 C-1.40506864 160.8492758 -1.36510887 141.10661005 -1.32245111 121.36394787 C-1.29633233 109.18965769 -1.27366401 97.01537035 -1.25546753 84.8410657 C-1.24277287 76.49277128 -1.2266364 68.14448807 -1.20781839 59.79620522 C-1.1970921 54.98252626 -1.18796009 50.16885808 -1.18312263 45.3551693 C-1.17866274 40.94203061 -1.16966617 36.52892451 -1.15717942 32.11580145 C-1.15346872 30.52555824 -1.15138427 28.93531014 -1.15115923 27.34506261 C-1.14884929 18.1882456 -0.86236143 9.12140992 0 0 Z " fill="#728FE4" transform="translate(925,336)"/>
<path d="M0 0 C0.33 0 0.66 0 1 0 C2.26960928 8.80236901 2.14250248 17.59129116 2.13371277 26.46199036 C2.13558241 28.24979265 2.13788372 30.03759453 2.14057809 31.82539576 C2.14668397 36.72613862 2.14656391 41.62686439 2.14538372 46.52761018 C2.14517939 51.81827517 2.15070161 57.10893472 2.15544128 62.39959717 C2.16374265 72.76239351 2.16649593 83.12518417 2.16705366 93.48798356 C2.16752924 101.91675577 2.16958606 110.3455261 2.17275429 118.77429771 C2.18156085 142.69163693 2.18617387 166.60897166 2.18542381 190.52631251 C2.18538386 191.81531249 2.1853439 193.10431246 2.18530273 194.43237305 C2.18524141 196.3682456 2.18524141 196.3682456 2.18517885 198.34322669 C2.18477278 219.23866427 2.19433254 240.13408378 2.2084411 261.02951614 C2.22282613 282.50465458 2.22971006 303.97978424 2.22884732 325.45492762 C2.228516 337.50337943 2.23123439 349.55181233 2.24202538 361.60025978 C2.25115857 371.86333171 2.2532827 382.12637616 2.24651595 392.38945041 C2.24326443 397.61922303 2.24314418 402.84894303 2.2518692 408.07871056 C2.25979649 412.88004387 2.25824002 417.6812834 2.24958507 422.4826146 C2.24806362 424.20610901 2.24981411 425.92961065 2.25544515 427.65309653 C2.29270616 439.88194266 1.40325435 451.85266918 0 464 C-0.33 464 -0.66 464 -1 464 C-0.67 310.88 -0.34 157.76 0 0 Z " fill="#18203C" transform="translate(926,315)"/>
<path d="M0 0 C4.84086135 3.90653503 8.96848809 7.9877812 12.8125 12.875 C13.32458008 13.52428467 13.83666016 14.17356934 14.36425781 14.8425293 C31.69530364 37.21996788 43.58941834 65.00556431 48 93 C48.18433594 94.12019531 48.36867188 95.24039063 48.55859375 96.39453125 C49.28315695 102.42135213 49.14853603 108.50047817 49.13037109 114.5612793 C49.12505614 116.66527666 49.13031691 118.76905638 49.13671875 120.87304688 C49.14042536 129.28667378 48.7913332 137.61889816 48 146 C47.67 146 47.34 146 47 146 C46.93149338 145.1810022 46.93149338 145.1810022 46.86160278 144.34545898 C46.38256309 138.63407726 45.89432741 132.9235334 45.40087891 127.21337891 C45.2182064 125.08564831 45.03783556 122.95771874 44.85986328 120.82958984 C44.60281724 117.76083349 44.33734906 114.69290121 44.0703125 111.625 C43.95455368 110.21045532 43.95455368 110.21045532 43.8364563 108.76733398 C43.3518751 103.30915593 42.44489114 98.28521231 41 93 C40.47714903 90.36149259 40.02320889 87.71246394 39.5625 85.0625 C38.48349329 79.15265508 37.14079619 73.61067 35 68 C34.566875 66.78699219 34.13375 65.57398438 33.6875 64.32421875 C30.65465573 55.90368706 27.17558311 47.93009902 23 40 C22.51144531 39.00613281 22.02289062 38.01226562 21.51953125 36.98828125 C16.01252131 26.15830026 8.41073261 17.02021546 0.4375 7.9375 C-2 5 -2 5 -2 3 C-1.34 3 -0.68 3 0 3 C0 2.01 0 1.02 0 0 Z " fill="#446FE7" transform="translate(877,203)"/>
<path d="M0 0 C0.86438139 -0.00085442 1.72876279 -0.00170885 2.61933756 -0.00258917 C5.49661278 -0.00422762 8.37382884 0.00125049 11.25109863 0.00672913 C13.32121784 0.00701138 15.39133715 0.00685252 17.4614563 0.00628662 C23.06825057 0.00600013 28.67502338 0.011873 34.28181267 0.01886058 C40.14612595 0.02511869 46.01043975 0.02569986 51.87475586 0.02688599 C62.97385833 0.02999205 74.07295092 0.03819568 85.17204905 0.04823548 C97.81044502 0.05941911 110.44884148 0.06491274 123.08724117 0.06993091 C149.08001684 0.08037889 175.07278374 0.09796431 201.06555176 0.12025452 C201.06555176 0.45025452 201.06555176 0.78025452 201.06555176 1.12025452 C199.31178223 1.21113342 199.31178223 1.21113342 197.52258301 1.30384827 C195.97439561 1.38829485 194.42621908 1.47294077 192.87805176 1.55775452 C191.72466309 1.61672913 191.72466309 1.61672913 190.54797363 1.67689514 C189.79709473 1.71878967 189.04621582 1.7606842 188.27258301 1.80384827 C187.58656006 1.84050598 186.90053711 1.8771637 186.19372559 1.91493225 C184.03992659 2.07701154 184.03992659 2.07701154 181.87316895 2.62025452 C177.89749353 3.32827045 173.96832369 3.35886134 169.93664551 3.43666077 C168.99718582 3.4575325 168.05772614 3.47840424 167.08979797 3.49990845 C163.89430957 3.56745348 160.69875065 3.62607 157.50305176 3.68275452 C155.81411804 3.71402435 155.81411804 3.71402435 154.09106445 3.7459259 C105.55644318 4.61558071 56.97633841 4.47117968 8.44055176 3.74525452 C6.62448425 3.7223233 6.62448425 3.7223233 4.77172852 3.69892883 C1.43969896 3.65466677 -1.89178509 3.59707986 -5.22351074 3.53431702 C-6.67792068 3.5169751 -6.67792068 3.5169751 -8.16171265 3.49928284 C-9.03498199 3.47942322 -9.90825134 3.4595636 -10.8079834 3.43910217 C-11.56277985 3.4257785 -12.31757629 3.41245483 -13.09524536 3.39872742 C-14.93444824 3.12025452 -14.93444824 3.12025452 -16.93444824 1.12025452 C-11.24192073 0.30566778 -5.745689 -0.02108385 0 0 Z " fill="#3970EE" transform="translate(552.9344482421875,152.87974548339844)"/>
<path d="M0 0 C6.78392016 -0.32336462 11.77175219 0.51890955 18.0625 3 C18.88468018 3.31541748 19.70686035 3.63083496 20.55395508 3.95581055 C37.66552887 10.66943447 57.80314564 19.78416521 70 34 C70.6875 36.1171875 70.6875 36.1171875 71 38 C71.63654342 39.3479743 72.29605388 40.68596724 73 42 C73.66 42 74.32 42 75 42 C75 42.99 75 43.98 75 45 C74.34 45 73.68 45 73 45 C73 44.34 73 43.68 73 43 C72.34 43 71.68 43 71 43 C71 42.34 71 41.68 71 41 C70.34 41 69.68 41 69 41 C69 40.34 69 39.68 69 39 C68.44828125 38.76410156 67.8965625 38.52820313 67.328125 38.28515625 C64.42293892 36.68145454 62.22637136 34.64755768 59.75 32.4375 C53.35751464 26.93892153 46.41116803 22.92372868 38.9609375 19.02734375 C37.13058065 18.06841177 35.31464867 17.08208544 33.5 16.09375 C26.22874089 12.25614102 19.02822397 9.46973304 11.12744141 7.21606445 C6.12107563 5.70680061 3.3999981 3.99920569 0 0 Z " fill="#3B6DDE" transform="translate(799,161)"/>
<path d="M0 0 C0.33 0 0.66 0 1 0 C1.06558594 15.66696853 1.06598119 31.33302418 1 47 C0.99718018 47.87638123 0.99436035 48.75276245 0.99145508 49.65570068 C0.91191457 71.41164307 -0.48617954 91.69049533 -9 112 C-9.66 111.67 -10.32 111.34 -11 111 C-10.88525534 108.45749979 -10.7585303 105.91652662 -10.625 103.375 C-10.5940625 102.66214844 -10.563125 101.94929687 -10.53125 101.21484375 C-10.2880084 96.79595468 -9.50791409 93.19423512 -8 89 C-5.48562997 77.97448744 -4.44270372 66.91271834 -3.734375 55.64331055 C-3.66605469 54.62406494 -3.59773437 53.60481934 -3.52734375 52.5546875 C-3.47312256 51.65218262 -3.41890137 50.74967773 -3.36303711 49.81982422 C-3 47 -3 47 -1.99291992 43.74243164 C-0.80586661 39.26828848 -0.64936476 35.17234813 -0.5859375 30.56640625 C-0.56657135 29.68846909 -0.5472052 28.81053192 -0.5272522 27.9059906 C-0.46787262 25.1249233 -0.42123883 22.34381367 -0.375 19.5625 C-0.33678184 17.66730049 -0.29772792 15.77211764 -0.2578125 13.87695312 C-0.16220571 9.25143871 -0.07802245 4.62584308 0 0 Z " fill="#7184DB" transform="translate(925,706)"/>
<path d="M0 0 C4.84086135 3.90653503 8.96848809 7.9877812 12.8125 12.875 C13.32458008 13.52428467 13.83666016 14.17356934 14.36425781 14.8425293 C24.02036227 27.31026417 30.97542859 40.46025224 37 55 C36.01 55.33 35.02 55.66 34 56 C28.4400189 50.6253516 24.94185553 44.06024338 21.625 37.125 C15.98555901 26.27992117 8.46555228 17.08266333 0.4375 7.9375 C-2 5 -2 5 -2 3 C-1.34 3 -0.68 3 0 3 C0 2.01 0 1.02 0 0 Z " fill="#325ECF" transform="translate(877,203)"/>
<path d="M0 0 C0 0.99 0 1.98 0 3 C-13.75631871 8.05127982 -27.38336758 12.38093067 -41.875 14.75 C-42.64763184 14.87785889 -43.42026367 15.00571777 -44.21630859 15.13745117 C-49.52772682 15.94709774 -54.62793499 16.1068005 -60 16 C-60.33 15.34 -60.66 14.68 -61 14 C-53.08 13.505 -53.08 13.505 -45 13 C-44.67 11.68 -44.34 10.36 -44 9 C-43.21496094 8.87882813 -42.42992187 8.75765625 -41.62109375 8.6328125 C-35.94444178 7.72733427 -30.51032377 6.66349397 -25 5 C-23.39990517 4.58801545 -21.79542314 4.19278658 -20.1875 3.8125 C-19.43855469 3.63332031 -18.68960938 3.45414063 -17.91796875 3.26953125 C-16 3 -16 3 -14 4 C-12.7625 3.7525 -12.7625 3.7525 -11.5 3.5 C-9 3 -9 3 -7 4 C-7 3.01 -7 2.02 -7 1 C-4.53721199 -0.231394 -2.7204945 -0.07159196 0 0 Z " fill="#436BE3" transform="translate(826,910)"/>
<path d="M0 0 C2.09350689 3.4019487 2.17942163 6.05272412 2 10 C2.66 10.33 3.32 10.66 4 11 C5.34061543 14.5415387 5.12939982 18.19109959 5.1328125 21.93359375 C5.13376923 22.60737564 5.13472595 23.28115753 5.13571167 23.97535706 C5.13639119 25.40341281 5.13455279 26.83147169 5.13037109 28.25952148 C5.12509494 30.3990006 5.13028425 32.53826243 5.13671875 34.67773438 C5.14041075 43.16304721 4.80141259 51.54500589 4 60 C3.67 60 3.34 60 3 60 C2.95210831 59.4406778 2.90421661 58.88135559 2.85487366 58.30508423 C2.35680209 52.49755429 1.85304647 46.69053756 1.34594727 40.88378906 C1.15730493 38.71497092 0.97012534 36.54602505 0.78442383 34.37695312 C0.5176583 31.2639773 0.24568132 28.15149477 -0.02734375 25.0390625 C-0.10967758 24.065065 -0.19201141 23.0910675 -0.27684021 22.08755493 C-0.35684769 21.18677216 -0.43685516 20.28598938 -0.51928711 19.35791016 C-0.58812607 18.56293121 -0.65696503 17.76795227 -0.72789001 16.94888306 C-0.90486448 14.92424286 -0.90486448 14.92424286 -2 13 C-2.07033769 11.12620395 -2.0843022 9.24998898 -2.0625 7.375 C-2.05347656 6.37210937 -2.04445313 5.36921875 -2.03515625 4.3359375 C-2.02355469 3.56507813 -2.01195312 2.79421875 -2 2 C-1.34 2 -0.68 2 0 2 C0 1.34 0 0.68 0 0 Z " fill="#3861DC" transform="translate(921,289)"/>
<path d="M0 0 C-2.05214166 6.15642499 -10.71735684 8.91231656 -16.25 11.75 C-19.7612235 13.47238251 -23.23353036 14.90970616 -27 16 C-27 15.34 -27 14.68 -27 14 C-29.31 14.33 -31.62 14.66 -34 15 C-34 15.99 -34 16.98 -34 18 C-38.95 18.495 -38.95 18.495 -44 19 C-43.67 18.34 -43.34 17.68 -43 17 C-39.9375 16.375 -39.9375 16.375 -37 16 C-37 15.01 -37 14.02 -37 13 C-30.36724003 10.55765661 -23.72045875 8.19037174 -17 6 C-16.67 6.33 -16.34 6.66 -16 7 C-14.56161448 6.20994338 -13.12432585 5.41788955 -11.6875 4.625 C-10.88699219 4.18414063 -10.08648438 3.74328125 -9.26171875 3.2890625 C-3.49090909 0 -3.49090909 0 0 0 Z " fill="#446CE0" transform="translate(853,896)"/>
<path d="M0 0 C0.33 0 0.66 0 1 0 C0.69356398 4.33574369 0.35209103 8.66774946 0 13 C-0.0825 14.19625 -0.165 15.3925 -0.25 16.625 C-1.38913328 21.75109976 -3.69722939 26.30098838 -6 31 C-7.32 30.67 -8.64 30.34 -10 30 C-10.12375 30.639375 -10.2475 31.27875 -10.375 31.9375 C-10.58125 32.618125 -10.7875 33.29875 -11 34 C-11.99 34.495 -11.99 34.495 -13 35 C-12.36747858 31.21174674 -11.26537156 27.96217752 -9.75 24.4375 C-9.30527344 23.39207031 -8.86054687 22.34664062 -8.40234375 21.26953125 C-7.93957031 20.19058594 -7.47679687 19.11164062 -7 18 C-6.10086247 15.87639597 -5.20491532 13.75143769 -4.3125 11.625 C-3.91675781 10.68914063 -3.52101563 9.75328125 -3.11328125 8.7890625 C-1.95681268 5.8918044 -0.95867895 2.96796497 0 0 Z " fill="#7684D7" transform="translate(915,804)"/>
<path d="M0 0 C0 0.99 0 1.98 0 3 C-12.54748365 7.18249455 -28.27071714 5.1121812 -41.3125 5.0625 C-43.61393132 5.05747539 -45.9153637 5.05291419 -48.21679688 5.04882812 C-53.81122136 5.03789765 -59.40560563 5.02123558 -65 5 C-65 4.67 -65 4.34 -65 4 C-64.20118408 3.98018066 -63.40236816 3.96036133 -62.5793457 3.93994141 C-45.47868995 3.49589597 -28.54449118 2.67282577 -11.53979492 0.71704102 C-10.74033447 0.62608154 -9.94087402 0.53512207 -9.1171875 0.44140625 C-8.04186768 0.3168103 -8.04186768 0.3168103 -6.94482422 0.18969727 C-4.62217769 -0.03685262 -2.3318224 -0.07522008 0 0 Z " fill="#3466EE" transform="translate(781,920)"/>
<path d="M0 0 C5.05068393 4.04073487 9.20692421 8.34919571 13.1875 13.4375 C13.69474609 14.06720703 14.20199219 14.69691406 14.72460938 15.34570312 C17.92051088 19.37892253 20.55262429 23.47323108 23 28 C21.30859375 27.90234375 21.30859375 27.90234375 19 27 C16.76679578 24.33104862 14.78453476 21.59923925 12.79882812 18.74804688 C10.13939734 15.07745694 8.25677229 13.43979063 4 12 C2.19921875 10.34375 2.19921875 10.34375 0.6875 8.5 C0.17574219 7.8915625 -0.33601562 7.283125 -0.86328125 6.65625 C-2 5 -2 5 -2 3 C-1.34 3 -0.68 3 0 3 C0 2.01 0 1.02 0 0 Z " fill="#1C51C1" transform="translate(877,203)"/>
<path d="M0 0 C0.99 0.33 1.98 0.66 3 1 C3.2890625 3.26171875 3.2890625 3.26171875 3 6 C1.0234375 8.01953125 1.0234375 8.01953125 -1.625 9.8125 C-2.48351562 10.41707031 -3.34203125 11.02164063 -4.2265625 11.64453125 C-7.42447012 13.2074523 -9.48819963 13.01860556 -13 13 C-15.42344361 14.2212477 -15.42344361 14.2212477 -17.5625 15.9375 C-20.73215907 18.32745684 -23.04748033 19.45123189 -27 20 C-24.35808072 17.18395422 -21.86983007 15.18275569 -18.5 13.3125 C-12.13326113 9.61201094 -5.22363685 5.22363685 0 0 Z " fill="#6381E3" transform="translate(862,884)"/>
<path d="M0 0 C0.66 0 1.32 0 2 0 C2.92159477 5.01757153 2.95823605 9.47974926 2.52734375 14.56640625 C1.74735054 24.85541544 1.93844398 35.14092607 2.02050781 45.45166016 C2.10405262 57.01382215 1.83787122 68.46617894 1 80 C0.67 80 0.34 80 0 80 C0 53.6 0 27.2 0 0 Z " fill="#1756E7" transform="translate(154,315)"/>
<path d="M0 0 C2.74428448 4.11642672 4.34745356 8.2507433 3.72070312 13.20996094 C3.16075047 15.47468047 2.49114932 17.66319314 1.75 19.875 C1.51925781 20.63296875 1.28851562 21.3909375 1.05078125 22.171875 C-0.68581575 27.68581575 -0.68581575 27.68581575 -3 30 C-3.33 29.67 -3.66 29.34 -4 29 C-3.9613164 26.4201016 -3.8538138 23.88466815 -3.6875 21.3125 C-3.65205078 20.60416016 -3.61660156 19.89582031 -3.58007812 19.16601562 C-3.30943986 14.79137027 -2.51714794 11.14687104 -1 7 C-0.62468554 4.67305036 -0.28082798 2.34023315 0 0 Z " fill="#5973CD" transform="translate(918,788)"/>
<path d="M0 0 C-2.8645847 1.50049675 -5.58647673 2.87498134 -8.6875 3.8125 C-12.8712642 5.31233999 -16.50003386 7.49505554 -20.31640625 9.7578125 C-23.1484808 11.06872911 -24.92249487 11.255995 -28 11 C-28.33 10.01 -28.66 9.02 -29 8 C-25.58546886 6.51586841 -22.16802429 5.03856685 -18.75 3.5625 C-17.29787109 2.93118164 -17.29787109 2.93118164 -15.81640625 2.28710938 C-14.88183594 1.88427734 -13.94726562 1.48144531 -12.984375 1.06640625 C-12.12553711 0.69459229 -11.26669922 0.32277832 -10.38183594 -0.06030273 C-6.07801865 -1.75827247 -4.08944196 -2.48287548 0 0 Z " fill="#2255DF" transform="translate(274,164)"/>
<path d="M0 0 C0.66 0.99 1.32 1.98 2 3 C-6 11 -6 11 -8.140625 13.078125 C-10.17061597 15.06105003 -10.17061597 15.06105003 -12 18 C-13.32 18 -14.64 18 -16 18 C-16 18.66 -16 19.32 -16 20 C-16.99 20.33 -17.98 20.66 -19 21 C-19 16.75684981 -17.05180476 15.33159192 -14.28515625 12.26953125 C-10.14923232 8.16188715 -5.56709614 4.61100854 -1 1 C-0.67 0.67 -0.34 0.34 0 0 Z " fill="#2053D8" transform="translate(218,189)"/>
<path d="M0 0 C3.56600345 1.45775086 5.28218884 3.30397691 7.5625 6.375 C8.14128906 7.14585937 8.72007812 7.91671875 9.31640625 8.7109375 C10.41405737 10.20333555 11.50183298 11.70306304 12.578125 13.2109375 C14.1891976 15.23805632 15.62938306 16.01905506 18 17 C17.67 17.99 17.34 18.98 17 20 C17.9662501 22.01652194 18.96708324 24.01679982 20 26 C20 26.99 20 27.98 20 29 C18.125 28.3125 18.125 28.3125 16 27 C15.31306522 25.34158424 14.64980682 23.67331208 14 22 C10.28309847 15.52729548 6.0237974 9.5366153 1.28515625 3.77734375 C0 2 0 2 0 0 Z " fill="#4B6DD7" transform="translate(883,215)"/>
<path d="M0 0 C1.32 0.33 2.64 0.66 4 1 C0.40870652 8.80715975 -4.29098442 15.83585664 -9 23 C-10.1171875 21.234375 -10.1171875 21.234375 -11 19 C-10.06434658 16.35435928 -8.54985485 14.37036624 -7 12 C-7.99 12.495 -7.99 12.495 -9 13 C-7.33333333 9.66666667 -5.66666667 6.33333333 -4 3 C-3.01 3 -2.02 3 -1 3 C-0.67 2.01 -0.34 1.02 0 0 Z " fill="#5C79D3" transform="translate(905,834)"/>
<path d="M0 0 C-1.67195831 5.01587493 -6.54002274 6.53382275 -11 9 C-11.90621094 9.51820313 -12.81242188 10.03640625 -13.74609375 10.5703125 C-14.61363281 11.04210937 -15.48117187 11.51390625 -16.375 12 C-17.16648437 12.433125 -17.95796875 12.86625 -18.7734375 13.3125 C-21 14 -21 14 -23.2890625 13.125 C-23.85367188 12.75375 -24.41828125 12.3825 -25 12 C-23 10 -23 10 -20.5 9.25 C-13.50770932 6.75275333 -7.34850945 0 0 0 Z " fill="#467FEE" transform="translate(853,896)"/>
<path d="M0 0 C0.33 0.66 0.66 1.32 1 2 C0.00905303 3.71764142 -0.98747138 5.43262302 -2.02734375 7.12109375 C-3.20983833 9.14495467 -3.20983833 9.14495467 -3.4375 12.3125 C-3.623125 13.199375 -3.80875 14.08625 -4 15 C-5.66567453 15.66914167 -7.33251318 16.33538739 -9 17 C-11.2760705 18.91623447 -11.2760705 18.91623447 -13.3125 21.125 C-14.00988281 21.84945312 -14.70726562 22.57390625 -15.42578125 23.3203125 C-15.94527344 23.87460937 -16.46476563 24.42890625 -17 25 C-17.66 24.67 -18.32 24.34 -19 24 C-11.40918136 14.42477954 -11.40918136 14.42477954 -7.6875 10.1875 C-5.44798061 7.61417691 -3.69612763 4.96822335 -2 2 C-1.34 1.34 -0.68 0.68 0 0 Z " fill="#6485DE" transform="translate(898,845)"/>
<path d="M0 0 C0.66 0.99 1.32 1.98 2 3 C1.52441406 4.83764648 1.52441406 4.83764648 0.515625 6.87109375 C0.15726563 7.61037109 -0.20109375 8.34964844 -0.5703125 9.11132812 C-0.95960938 9.87896484 -1.34890625 10.64660156 -1.75 11.4375 C-2.12382812 12.20126953 -2.49765625 12.96503906 -2.8828125 13.75195312 C-3.90856475 15.84165054 -4.95081018 17.92199549 -6 20 C-6.32774414 20.72711182 -6.65548828 21.45422363 -6.99316406 22.20336914 C-8 24 -8 24 -10.125 24.75 C-11.053125 24.87375 -11.053125 24.87375 -12 25 C-8.83133957 15.94668448 -5.08493229 8.13296087 0 0 Z " fill="#0E47C2" transform="translate(178,234)"/>
<path d="M0 0 C2.11663275 3.43952821 2 6.03423009 2 10 C2.66 10.66 3.32 11.32 4 12 C4.046875 14.3125 4.046875 14.3125 3.75 17 C3.61851562 18.3303125 3.61851562 18.3303125 3.484375 19.6875 C3 22 3 22 1 24 C-1.436168 16.50298299 -2.41136629 9.87690257 -2 2 C-1.34 2 -0.68 2 0 2 C0 1.34 0 0.68 0 0 Z " fill="#476FEE" transform="translate(921,289)"/>
<path d="M0 0 C0.598125 0.639375 1.19625 1.27875 1.8125 1.9375 C3.90810337 4.20310389 3.90810337 4.20310389 7 5 C6.80664062 5.56460937 6.61328125 6.12921875 6.4140625 6.7109375 C5.91098454 9.49210435 6.41326764 10.98685343 7.375 13.625 C7.65085937 14.40101563 7.92671875 15.17703125 8.2109375 15.9765625 C8.97351924 18.02345187 8.97351924 18.02345187 10 20 C10.06950541 21.54023996 10.08452357 23.08334988 10.0625 24.625 C10.05347656 25.44226563 10.04445313 26.25953125 10.03515625 27.1015625 C10.02355469 27.72804688 10.01195312 28.35453125 10 29 C7.09025829 25.66041008 6.11482771 22.50492578 5 18.25 C3.9016966 14.19050167 2.79464815 10.22512291 1.25 6.3125 C0 3 0 3 0 0 Z " fill="#4D70D8" transform="translate(907,254)"/>
<path d="M0 0 C0.66 0.33 1.32 0.66 2 1 C-5.92 8.92 -13.84 16.84 -22 25 C-22 19.48202265 -16.74566173 15.75176216 -13 12 C-8.74975309 7.90947264 -4.38527748 3.94471637 0 0 Z " fill="#768FE2" transform="translate(452,573)"/>
<path d="M0 0 C1.28902977 3.86708932 0.45012347 5.6387332 -0.75 9.5 C-1.09546875 10.6446875 -1.4409375 11.789375 -1.796875 12.96875 C-2.90881495 15.77026103 -3.60258494 17.23348364 -6 19 C-6.66 19 -7.32 19 -8 19 C-6.41730959 12.79271068 -4.87341526 6.74683051 -2 1 C-1.34 0.67 -0.68 0.34 0 0 Z " fill="#0D41BA" transform="translate(167,260)"/>
<path d="M0 0 C1.485 0.99 1.485 0.99 3 2 C4.03125 2.28875 5.0625 2.5775 6.125 2.875 C7.07375 3.24625 8.0225 3.6175 9 4 C9.75 5.875 9.75 5.875 10 8 C10.63654342 9.3479743 11.29605388 10.68596724 12 12 C12.66 12 13.32 12 14 12 C14 12.99 14 13.98 14 15 C13.34 15 12.68 15 12 15 C12 14.34 12 13.68 12 13 C11.34 13 10.68 13 10 13 C10 12.34 10 11.68 10 11 C9.34 11 8.68 11 8 11 C8 10.34 8 9.68 8 9 C7.443125 8.773125 6.88625 8.54625 6.3125 8.3125 C3.36753316 6.64103234 1.31843456 4.44723648 -1 2 C-0.67 1.34 -0.34 0.68 0 0 Z " fill="#4268DD" transform="translate(860,191)"/>
<path d="M0 0 C0.33 0 0.66 0 1 0 C1 4.29 1 8.58 1 13 C1.66 13 2.32 13 3 13 C3.07739575 17.56634899 2.94130847 21.52878478 2 26 C1.96227087 27.9996441 1.95350094 30.00054061 2 32 C1.01 32.495 1.01 32.495 0 33 C0 22.11 0 11.22 0 0 Z " fill="#1E52EA" transform="translate(661,306)"/>
<path d="M0 0 C0 3 0 3 -1 6 C-4.5625 7.1875 -4.5625 7.1875 -8 8 C-8 8.66 -8 9.32 -8 10 C-13.625 12.125 -13.625 12.125 -17 11 C-11.39 7.37 -5.78 3.74 0 0 Z " fill="#1A47CE" transform="translate(236,177)"/>
<path d="M0 0 C4.2430729 2.90315514 5.70690675 5.04314255 7 10 C7.33 10.66 7.66 11.32 8 12 C7.01 12.33 6.02 12.66 5 13 C4.401875 12.236875 3.80375 11.47375 3.1875 10.6875 C1.15995888 8.08664741 1.15995888 8.08664741 -0.75 6.3125 C-2 5 -2 5 -2 3 C-1.34 3 -0.68 3 0 3 C0 2.01 0 1.02 0 0 Z " fill="#2551C6" transform="translate(877,203)"/>
<path d="M0 0 C0.99 0 1.98 0 3 0 C3 0.66 3 1.32 3 2 C4.65 2 6.3 2 8 2 C8 2.66 8 3.32 8 4 C0.27279225 5.23107719 -7.1683819 6.2700558 -15 6 C-15.33 5.34 -15.66 4.68 -16 4 C-8.08 3.505 -8.08 3.505 0 3 C0 2.01 0 1.02 0 0 Z " fill="#3D4F93" transform="translate(781,920)"/>
<path d="M0 0 C0.33 0 0.66 0 1 0 C1 3.3 1 6.6 1 10 C1.33 10 1.66 10 2 10 C1.88557539 11.60495567 1.75805306 13.20898119 1.625 14.8125 C1.55539062 15.70582031 1.48578125 16.59914063 1.4140625 17.51953125 C1 20 1 20 -1 23 C-3.5061426 15.48157221 -1.58216923 7.55768338 0 0 Z " fill="#4D61B0" transform="translate(923,771)"/>
<path d="M0 0 C0.99 0 1.98 0 3 0 C2.67 5.94 2.34 11.88 2 18 C1.01 17.34 0.02 16.68 -1 16 C-1.328125 13.57421875 -1.328125 13.57421875 -1.25 10.6875 C-1.23453125 9.74261719 -1.2190625 8.79773438 -1.203125 7.82421875 C-1.00985142 5.13697257 -0.59292973 2.62514858 0 0 Z " fill="#5A74E0" transform="translate(923,748)"/>
<path d="M0 0 C0.99 0 1.98 0 3 0 C1.56691865 3.95906817 -0.33141949 7.28718181 -2.625 10.8125 C-3.57246094 12.27623047 -3.57246094 12.27623047 -4.5390625 13.76953125 C-5.02117188 14.50558594 -5.50328125 15.24164062 -6 16 C-6.66 14.68 -7.32 13.36 -8 12 C-6.7260411 9.96166576 -5.38938077 7.96147874 -4 6 C-3.34 6 -2.68 6 -2 6 C-1.34 4.02 -0.68 2.04 0 0 Z " fill="#4264BB" transform="translate(902,841)"/>
<path d="M0 0 C1.45823212 -0.0270043 2.91660675 -0.04639787 4.375 -0.0625 C5.18710937 -0.07410156 5.99921875 -0.08570313 6.8359375 -0.09765625 C9 0 9 0 11 1 C11 1.99 11 2.98 11 4 C11.99 4.33 12.98 4.66 14 5 C10.77509551 6.61245225 8.43772273 5.81573082 5 5 C2.0625 2.4375 2.0625 2.4375 0 0 Z " fill="#2963E1" transform="translate(799,161)"/>
<path d="M0 0 C0.99 0.33 1.98 0.66 3 1 C4.16796875 3.43359375 4.16796875 3.43359375 5.1875 6.4375 C5.70376953 7.92056641 5.70376953 7.92056641 6.23046875 9.43359375 C7 12 7 12 7 14 C6.01 14 5.02 14 4 14 C1.24297811 9.20517932 0.46671627 5.41390868 0 0 Z " fill="#2956CA" transform="translate(912,260)"/>
<path d="M0 0 C0 0.66 0 1.32 0 2 C1.98 2 3.96 2 6 2 C5.34 2.66 4.68 3.32 4 4 C4.825 4.45375 5.65 4.9075 6.5 5.375 C7.325 5.91125 8.15 6.4475 9 7 C9 7.66 9 8.32 9 9 C4.0276578 7.50829734 -0.41845739 5.39542583 -5 3 C-5 2.34 -5 1.68 -5 1 C-2 0 -2 0 0 0 Z " fill="#466ED5" transform="translate(833,172)"/>
<path d="M0 0 C0.99 0.33 1.98 0.66 3 1 C1.45730076 5.72065967 -0.07794619 10.41664092 -2 15 C-3.59784767 12.52535506 -4.06910487 11.41272724 -3.57421875 8.45703125 C-3.28160156 7.58433594 -2.98898437 6.71164062 -2.6875 5.8125 C-2.40261719 4.93207031 -2.11773438 4.05164063 -1.82421875 3.14453125 C-1 1 -1 1 0 0 Z " fill="#4A6EBE" transform="translate(912,818)"/>
<path d="M0 0 C0.66 0 1.32 0 2 0 C2.28125 2.26171875 2.28125 2.26171875 2 5 C0.03125 7.01953125 0.03125 7.01953125 -2.5 8.8125 C-3.3353125 9.41707031 -4.170625 10.02164062 -5.03125 10.64453125 C-5.6809375 11.09183594 -6.330625 11.53914063 -7 12 C-7.66 11.67 -8.32 11.34 -9 11 C-8.51789062 10.45730469 -8.03578125 9.91460937 -7.5390625 9.35546875 C-6.90742187 8.64003906 -6.27578125 7.92460937 -5.625 7.1875 C-4.68527344 6.12595703 -4.68527344 6.12595703 -3.7265625 5.04296875 C-1.859401 2.91196181 -1.859401 2.91196181 0 0 Z " fill="#4368E5" transform="translate(525,324)"/>
<path d="M0 0 C0.99 0.33 1.98 0.66 3 1 C2.55005243 2.79379098 2.08975857 4.58498928 1.625 6.375 C1.36976563 7.37273438 1.11453125 8.37046875 0.8515625 9.3984375 C0 12 0 12 -2 14 C-2.33 13.67 -2.66 13.34 -3 13 C-2.60537976 8.26455717 -2.03464238 4.34057042 0 0 Z " fill="#3D62C3" transform="translate(917,804)"/>
<path d="M0 0 C3.17218843 3.62535821 4.42902597 7.51150278 6 12 C4.68 12 3.36 12 2 12 C-0.5847236 8.12291459 -0.62782738 5.61494043 -1 1 C-0.67 0.67 -0.34 0.34 0 0 Z " fill="#2256C3" transform="translate(905,240)"/>
<path d="M0 0 C5.94 0 11.88 0 18 0 C13.9566353 2.02168235 11.67870655 2.35927761 7.25 2.625 C6.07953125 2.69976562 4.9090625 2.77453125 3.703125 2.8515625 C2.81109375 2.90054688 1.9190625 2.94953125 1 3 C0.67 2.01 0.34 1.02 0 0 Z " fill="#1748D5" transform="translate(321,153)"/>
<path d="M0 0 C0 0.99 0 1.98 0 3 C-3.14930893 4.04976964 -5.38814456 4.10131595 -8.6875 4.0625 C-9.68136719 4.05347656 -10.67523437 4.04445313 -11.69921875 4.03515625 C-12.83810547 4.01775391 -12.83810547 4.01775391 -14 4 C-13.67 3.34 -13.34 2.68 -13 2 C-8.55499776 0.66649933 -4.6681169 -0.29175731 0 0 Z " fill="#426FEA" transform="translate(781,920)"/>
<path d="M0 0 C0 0.99 0 1.98 0 3 C-4.66435257 7.05595875 -10.24370655 10.69748262 -16 13 C-16.66 12.67 -17.32 12.34 -18 12 C-12 8 -6 4 0 0 Z " fill="#697AD9" transform="translate(853,891)"/>
<path d="M0 0 C2.40672854 3.61009281 2.29795107 6.26975281 2.25 10.4375 C2.25773438 12.41556641 2.25773438 12.41556641 2.265625 14.43359375 C2 18 2 18 0 22 C0 17.38 0 12.76 0 8 C-0.66 8 -1.32 8 -2 8 C-1.125 1.125 -1.125 1.125 0 0 Z " fill="#627CD8" transform="translate(923,763)"/>
<path d="M0 0 C0.33 0.99 0.66 1.98 1 3 C-0.21484375 5.26171875 -0.21484375 5.26171875 -1.9375 7.6875 C-2.78634766 8.89986328 -2.78634766 8.89986328 -3.65234375 10.13671875 C-4.09707031 10.75160156 -4.54179687 11.36648437 -5 12 C-6.32 11.67 -7.64 11.34 -9 11 C-6.03 7.37 -3.06 3.74 0 0 Z " fill="#143FB5" transform="translate(194,212)"/>
<path d="M0 0 C-1.32118505 2.6423701 -2.65809192 3.01619984 -5.3125 4.25 C-6.09238281 4.62640625 -6.87226562 5.0028125 -7.67578125 5.390625 C-10 6 -10 6 -12.29296875 5.109375 C-12.85628906 4.74328125 -13.41960938 4.3771875 -14 4 C-10.07627117 0.07627117 -5.34401044 -0.25447669 0 0 Z " fill="#3B6CCA" transform="translate(842,904)"/>
<path d="M0 0 C0 1.66666667 0 3.33333333 0 5 C-1.6796875 6.32421875 -1.6796875 6.32421875 -3.875 7.6875 C-4.95394531 8.37392578 -4.95394531 8.37392578 -6.0546875 9.07421875 C-6.69664062 9.37972656 -7.33859375 9.68523437 -8 10 C-10 9 -10 9 -11 7 C-7.37 4.69 -3.74 2.38 0 0 Z " fill="#325FE9" transform="translate(515,336)"/>
<path d="M0 0 C6.68747028 0.04853026 13.22312026 1.12408425 19.8125 2.1875 C19.8125 2.5175 19.8125 2.8475 19.8125 3.1875 C16.20840081 3.24550828 12.60442149 3.28109869 9 3.3125 C7.46375977 3.33763672 7.46375977 3.33763672 5.89648438 3.36328125 C4.91357422 3.36972656 3.93066406 3.37617188 2.91796875 3.3828125 C2.01199951 3.39328613 1.10603027 3.40375977 0.17260742 3.41455078 C-2.1875 3.1875 -2.1875 3.1875 -5.1875 1.1875 C-3.63054086 -0.36945914 -2.16770794 0.01768114 0 0 Z " fill="#314A91" transform="translate(768.1875,153.8125)"/>
<path d="M0 0 C0 0.99 0 1.98 0 3 C-1.6210103 3.69685498 -3.24696066 4.38222861 -4.875 5.0625 C-5.77992188 5.44535156 -6.68484375 5.82820312 -7.6171875 6.22265625 C-10 7 -10 7 -12 6 C-11.67 5.01 -11.34 4.02 -11 3 C-9.02 3.495 -9.02 3.495 -7 4 C-7 3.01 -7 2.02 -7 1 C-4.53721199 -0.231394 -2.7204945 -0.07159196 0 0 Z " fill="#3957C0" transform="translate(826,910)"/>
<path d="M0 0 C1.11213775 3.33641325 0.95341693 3.79120236 -0.3125 6.875 C-0.59351563 7.57367188 -0.87453125 8.27234375 -1.1640625 8.9921875 C-1.43992188 9.65476562 -1.71578125 10.31734375 -2 11 C-2.391875 11.99 -2.78375 12.98 -3.1875 14 C-3.455625 14.66 -3.72375 15.32 -4 16 C-4.66 15.67 -5.32 15.34 -6 15 C-5.84402344 14.44570313 -5.68804687 13.89140625 -5.52734375 13.3203125 C-5.33269531 12.59585937 -5.13804687 11.87140625 -4.9375 11.125 C-4.64166016 10.04605469 -4.64166016 10.04605469 -4.33984375 8.9453125 C-3.78867393 6.92726407 -3.78867393 6.92726407 -5 5 C-3.68 4.67 -2.36 4.34 -1 4 C-0.67 2.68 -0.34 1.36 0 0 Z " fill="#255FE2" transform="translate(171,254)"/>
<path d="M0 0 C1.25127906 3.54667178 0.72285053 5.72253438 -0.4375 9.25 C-0.72496094 10.14203125 -1.01242188 11.0340625 -1.30859375 11.953125 C-1.53675781 12.62859375 -1.76492187 13.3040625 -2 14 C-2.66 14 -3.32 14 -4 14 C-3.85769192 12.58297487 -3.71099254 11.1663904 -3.5625 9.75 C-3.48128906 8.96109375 -3.40007812 8.1721875 -3.31640625 7.359375 C-3.02048007 5.15271556 -2.70573121 3.11251991 -2 1 C-1.34 0.67 -0.68 0.34 0 0 Z " fill="#0B44B2" transform="translate(159,286)"/>
<path d="M0 0 C0.66 0.99 1.32 1.98 2 3 C1.07038578 4.15224028 0.1309875 5.29659176 -0.8125 6.4375 C-1.59560547 7.39462891 -1.59560547 7.39462891 -2.39453125 8.37109375 C-4 10 -4 10 -7 11 C-7 7.22089522 -6.00296038 6.53893899 -3.5 3.8125 C-2.8503125 3.09707031 -2.200625 2.38164062 -1.53125 1.64453125 C-1.0259375 1.10183594 -0.520625 0.55914062 0 0 Z " fill="#1343AF" transform="translate(206,199)"/>
<path d="M0 0 C0.495 0.391875 0.99 0.78375 1.5 1.1875 C-2.5271824 3.39286179 -5.93545749 4.64410208 -10.5 5.1875 C-10.5 4.1975 -10.5 3.2075 -10.5 2.1875 C-3.28774617 -1.06851751 -3.28774617 -1.06851751 0 0 Z " fill="#1545C1" transform="translate(272.5,162.8125)"/>
<path d="M0 0 C0.99 0.33 1.98 0.66 3 1 C-0.3 3.97 -3.6 6.94 -7 10 C-8 8 -8 8 -7.3125 5.4375 C-6 3 -6 3 -4 2.1875 C-2 2 -2 2 0 2 C0 1.34 0 0.68 0 0 Z " fill="#2F5FE1" transform="translate(202,207)"/>
<path d="M0 0 C0.99 0 1.98 0 3 0 C3 0.66 3 1.32 3 2 C2.01 2.495 2.01 2.495 1 3 C0.855625 3.804375 0.71125 4.60875 0.5625 5.4375 C0 8 0 8 -3 10 C-3.33 8.02 -3.66 6.04 -4 4 C-2.68 3.34 -1.36 2.68 0 2 C0 1.34 0 0.68 0 0 Z " fill="#5B73CE" transform="translate(868,879)"/>
<path d="M0 0 C2.97 0.99 5.94 1.98 9 3 C9 3.66 9 4.32 9 5 C7.54364629 5.22174933 6.08477044 5.42698698 4.625 5.625 C3.81289063 5.74101562 3.00078125 5.85703125 2.1640625 5.9765625 C1.44992187 5.98429688 0.73578125 5.99203125 0 6 C-0.66 5.34 -1.32 4.68 -2 4 C-0.68 4 0.64 4 2 4 C1.34 3.67 0.68 3.34 0 3 C0 2.01 0 1.02 0 0 Z " fill="#295DCA" transform="translate(810,162)"/>
<path d="M0 0 C1.64767247 0.28109113 3.29313145 0.57518526 4.9375 0.875 C5.85402344 1.03742187 6.77054687 1.19984375 7.71484375 1.3671875 C8.46894531 1.57601562 9.22304688 1.78484375 10 2 C10.33 2.66 10.66 3.32 11 4 C7.69564916 5.12377697 5.9493138 4.89554742 2.75 3.5625 C2.04359375 3.27503906 1.3371875 2.98757813 0.609375 2.69140625 C0.07828125 2.46324219 -0.4528125 2.23507812 -1 2 C-0.67 1.34 -0.34 0.68 0 0 Z " fill="#1A45BB" transform="translate(262,913)"/>
<path d="M0 0 C2.66666667 2.66666667 5.33333333 5.33333333 8 8 C7.67 8.99 7.34 9.98 7 11 C4.66666667 8.66666667 2.33333333 6.33333333 0 4 C0 2.68 0 1.36 0 0 Z " fill="#1443B9" transform="translate(882,208)"/>
<path d="M0 0 C1.19882812 0.15275391 1.19882812 0.15275391 2.421875 0.30859375 C3.02515625 0.39238281 3.6284375 0.47617187 4.25 0.5625 C4.25 0.8925 4.25 1.2225 4.25 1.5625 C2.83461283 1.90122513 1.41762037 2.23324624 0 2.5625 C-0.78890625 2.748125 -1.5778125 2.93375 -2.390625 3.125 C-4.75 3.5625 -4.75 3.5625 -8.75 3.5625 C-8.75 2.5725 -8.75 1.5825 -8.75 0.5625 C-5.62819599 -0.40411363 -3.22916205 -0.42738909 0 0 Z " fill="#3A55A6" transform="translate(798.75,919.4375)"/>
<path d="M0 0 C2.475 0.99 2.475 0.99 5 2 C3.02 4.31 1.04 6.62 -1 9 C-1.66 7.68 -2.32 6.36 -3 5 C-2.01 4.67 -1.02 4.34 0 4 C-0.33 3.01 -0.66 2.02 -1 1 C-0.67 0.67 -0.34 0.34 0 0 Z " fill="#4E6EBB" transform="translate(871,877)"/>
<path d="M0 0 C0.99 0.33 1.98 0.66 3 1 C0.03 3.97 -2.94 6.94 -6 10 C-6.66 9.01 -7.32 8.02 -8 7 C-6.68 6.67 -5.36 6.34 -4 6 C-4 5.01 -4 4.02 -4 3 C-3.34 3 -2.68 3 -2 3 C-2 2.34 -2 1.68 -2 1 C-1.34 0.67 -0.68 0.34 0 0 Z " fill="#3159E3" transform="translate(444,420)"/>
<path d="M0 0 C0.99 0.33 1.98 0.66 3 1 C1.87672229 2.45966034 0.75131706 3.91768364 -0.375 5.375 C-1.00148438 6.18710937 -1.62796875 6.99921875 -2.2734375 7.8359375 C-4 10 -4 10 -6 12 C-6 10.35 -6 8.7 -6 7 C-5.34 7 -4.68 7 -4 7 C-3.896875 6.360625 -3.79375 5.72125 -3.6875 5.0625 C-3.460625 4.381875 -3.23375 3.70125 -3 3 C-2.01 2.67 -1.02 2.34 0 2 C0 1.34 0 0.68 0 0 Z " fill="#345EE1" transform="translate(432,250)"/>
<path d="M0 0 C0.66 0.33 1.32 0.66 2 1 C0.44499019 4.81684226 -2.03595495 7.19195732 -5 10 C-5.68359375 8.203125 -5.68359375 8.203125 -6 6 C-4.78515625 4.296875 -4.78515625 4.296875 -3.0625 2.75 C-2.21365234 1.96882812 -2.21365234 1.96882812 -1.34765625 1.171875 C-0.90292969 0.78515625 -0.45820312 0.3984375 0 0 Z " fill="#3259AB" transform="translate(890,860)"/>
<path d="M0 0 C0.66 0 1.32 0 2 0 C2.33 1.98 2.66 3.96 3 6 C1.68 5.67 0.36 5.34 -1 5 C-1.12375 5.639375 -1.2475 6.27875 -1.375 6.9375 C-1.58125 7.618125 -1.7875 8.29875 -2 9 C-2.99 9.495 -2.99 9.495 -4 10 C-3.43697042 6.05879291 -2.3208055 3.2491277 0 0 Z " fill="#778CDC" transform="translate(906,829)"/>
<path d="M0 0 C1.14926266 0.95421808 2.29430541 1.91352045 3.4375 2.875 C4.07558594 3.40867188 4.71367188 3.94234375 5.37109375 4.4921875 C7 6 7 6 8 8 C7.01 8.33 6.02 8.66 5 9 C2.5 6.75 2.5 6.75 0 4 C0 2.68 0 1.36 0 0 Z " fill="#0B43BA" transform="translate(869,195)"/>
<path d="M0 0 C3.94139078 1.66751148 6.7892812 4.22710649 10 7 C8.3125 7.8125 8.3125 7.8125 6 8 C2.96830161 5.46183391 1.25830363 3.77491089 0 0 Z " fill="#174AB8" transform="translate(857,186)"/>
<path d="M0 0 C0 0.33 0 0.66 0 1 C-2.0839403 0.88556397 -4.16716493 0.75804453 -6.25 0.625 C-7.41015625 0.55539062 -8.5703125 0.48578125 -9.765625 0.4140625 C-12.70694334 0.03751692 -14.49949011 -0.4774123 -17 -2 C-11.42347167 -3.85884278 -5.54449806 -1.43392191 0 0 Z " fill="#1E316B" transform="translate(304,924)"/>
<path d="M0 0 C3.5 0.8125 3.5 0.8125 7 2 C7.99 2.33 8.98 2.66 10 3 C10 3.66 10 4.32 10 5 C7.44855176 5.93045933 6.25993522 6.08564091 3.640625 5.22265625 C2.85171875 4.83980469 2.0628125 4.45695313 1.25 4.0625 C0.45078125 3.68222656 -0.3484375 3.30195312 -1.171875 2.91015625 C-1.77515625 2.60980469 -2.3784375 2.30945313 -3 2 C-2.01 1.34 -1.02 0.68 0 0 Z " fill="#1A42BD" transform="translate(251,908)"/>
<path d="M0 0 C0.99 0.33 1.98 0.66 3 1 C2.24266726 2.3410477 1.46867264 3.67269781 0.6875 5 C0.25824219 5.7425 -0.17101562 6.485 -0.61328125 7.25 C-1.07089844 7.8275 -1.52851563 8.405 -2 9 C-2.99 9 -3.98 9 -5 9 C-3.7508258 5.54074837 -2.32472205 2.85306797 0 0 Z " fill="#1546D1" transform="translate(184,225)"/>
<path d="M0 0 C-3.80180386 2.68362626 -6.34379204 3.51735644 -11 3 C-11.66 2.34 -12.32 1.68 -13 1 C-11.39796533 0.63631108 -9.79325797 0.28438048 -8.1875 -0.0625 C-7.29417969 -0.25972656 -6.40085937 -0.45695313 -5.48046875 -0.66015625 C-3 -1 -3 -1 0 0 Z " fill="#203F9B" transform="translate(302,156)"/>
<path d="M0 0 C2.97 0 5.94 0 9 0 C8.01 0.33 7.02 0.66 6 1 C6 1.66 6 2.32 6 3 C2.04 3 -1.92 3 -6 3 C-6 2.67 -6 2.34 -6 2 C-4.02 1.67 -2.04 1.34 0 1 C0 0.67 0 0.34 0 0 Z " fill="#1235A7" transform="translate(309,154)"/>
<path d="M0 0 C0.66 0.33 1.32 0.66 2 1 C1.67 1.99 1.34 2.98 1 4 C-3.09724467 5.54613006 -5.81857651 6.29227216 -10 5 C-8.38007835 4.13624104 -6.75388139 3.28424146 -5.125 2.4375 C-4.22007812 1.96183594 -3.31515625 1.48617187 -2.3828125 0.99609375 C-1.20332031 0.50302734 -1.20332031 0.50302734 0 0 Z " fill="#5771D2" transform="translate(834,902)"/>
<path d="M0 0 C1.32 0.33 2.64 0.66 4 1 C-0.455 4.465 -0.455 4.465 -5 8 C-5.33 7.01 -5.66 6.02 -6 5 C-5.38125 4.9175 -4.7625 4.835 -4.125 4.75 C-1.81562433 4.18741541 -1.81562433 4.18741541 -0.75 1.9375 C-0.5025 1.298125 -0.255 0.65875 0 0 Z " fill="#3F66E4" transform="translate(453,412)"/>
<path d="M0 0 C4.10958767 1.45044271 7.43258745 3.51110752 11 6 C10.01 6.33 9.02 6.66 8 7 C5.5 5.6875 5.5 5.6875 3 4 C2.01 3.34 1.02 2.68 0 2 C0 1.34 0 0.68 0 0 Z " fill="#1647B2" transform="translate(846,179)"/>
<path d="M0 0 C3.465 1.98 3.465 1.98 7 4 C6.01 4.66 5.02 5.32 4 6 C0.3125 4.625 0.3125 4.625 -3 3 C-2.01 2.01 -1.02 1.02 0 0 Z " fill="#1A4CC1" transform="translate(839,174)"/>
<path d="M0 0 C0.33 0.66 0.66 1.32 1 2 C-0.32 2 -1.64 2 -3 2 C-3 1.34 -3 0.68 -3 0 C-5.31 0.66 -7.62 1.32 -10 2 C-10.66 1.34 -11.32 0.68 -12 0 C-7.25903047 -2.03184408 -4.71062577 -2.19098873 0 0 Z " fill="#2953A7" transform="translate(836,172)"/>
<path d="M0 0 C0.33 0.66 0.66 1.32 1 2 C1.66 2.33 2.32 2.66 3 3 C-0.47325181 4.1577506 -3.36067448 4.06866652 -7 4 C-7.33 3.34 -7.66 2.68 -8 2 C-5.36 1.34 -2.72 0.68 0 0 Z " fill="#3560D5" transform="translate(806,916)"/>
<path d="M0 0 C0 1.32 0 2.64 0 4 C-2 5.75 -2 5.75 -4 7 C-4.99 6.01 -5.98 5.02 -7 4 C-2.25 0 -2.25 0 0 0 Z " fill="#557CD5" transform="translate(885,867)"/>
<path d="M0 0 C0.33 1.32 0.66 2.64 1 4 C-0.43359375 5.921875 -0.43359375 5.921875 -2.4375 7.75 C-3.09621094 8.36359375 -3.75492188 8.9771875 -4.43359375 9.609375 C-5.20896484 10.29773438 -5.20896484 10.29773438 -6 11 C-6.66 10.67 -7.32 10.34 -8 10 C-5.36 6.7 -2.72 3.4 0 0 Z " fill="#7785D6" transform="translate(887,859)"/>
<path d="M0 0 C0.33 0.66 0.66 1.32 1 2 C-1.31 5.3 -3.62 8.6 -6 12 C-6.33 11.01 -6.66 10.02 -7 9 C-5.8203125 6.9921875 -5.8203125 6.9921875 -4.125 4.875 C-3.57070313 4.17117188 -3.01640625 3.46734375 -2.4453125 2.7421875 C-1 1 -1 1 0 0 Z " fill="#7B8BDB" transform="translate(898,845)"/>
<path d="M0 0 C2.29633824 3.44450737 2.54016485 5.93812283 3 10 C2.01 10.495 2.01 10.495 1 11 C-1.03684712 6.92630576 -1.0257259 4.41062136 0 0 Z " fill="#3B59B2" transform="translate(919,275)"/>
<path d="M0 0 C0 3 0 3 -1 6 C-3.31 6.33 -5.62 6.66 -8 7 C-8 6.34 -8 5.68 -8 5 C-6.25 3.7109375 -6.25 3.7109375 -4 2.375 C-3.2575 1.92898437 -2.515 1.48296875 -1.75 1.0234375 C-1.1725 0.68570313 -0.595 0.34796875 0 0 Z " fill="#1D49BB" transform="translate(236,177)"/>
<path d="M0 0 C1.32 0.66 2.64 1.32 4 2 C1.36 3.65 -1.28 5.3 -4 7 C-4 5.68 -4 4.36 -4 3 C-2 1.25 -2 1.25 0 0 Z " fill="#3669C1" transform="translate(861,888)"/>
<path d="M0 0 C1.73684533 3.47369066 2.30084112 5.07619937 2.625 8.75 C2.69976563 9.54921875 2.77453125 10.3484375 2.8515625 11.171875 C2.90054688 11.77515625 2.94953125 12.3784375 3 13 C2.01 13.33 1.02 13.66 0 14 C0 9.38 0 4.76 0 0 Z " fill="#334A92" transform="translate(922,287)"/>
<path d="M0 0 C0.33 0.99 0.66 1.98 1 3 C-2.6441774 5.4294516 -4.71241272 5.16179575 -9 5 C-6.3534665 2.3534665 -3.43778736 1.40058003 0 0 Z " fill="#0E3EC0" transform="translate(256,167)"/>
<path d="M0 0 C-2 2 -2 2 -5.0390625 2.1953125 C-6.22242188 2.17210937 -7.40578125 2.14890625 -8.625 2.125 C-9.81351562 2.10695312 -11.00203125 2.08890625 -12.2265625 2.0703125 C-13.14179688 2.04710937 -14.05703125 2.02390625 -15 2 C-15 1.67 -15 1.34 -15 1 C-13.44033408 0.63355422 -11.87707349 0.28239138 -10.3125 -0.0625 C-9.44238281 -0.25972656 -8.57226562 -0.45695313 -7.67578125 -0.66015625 C-4.83998724 -1.02032279 -2.75210018 -0.70909969 0 0 Z " fill="#2058E4" transform="translate(344,154)"/>
<path d="M0 0 C-0.66 0 -1.32 0 -2 0 C-2 0.99 -2 1.98 -2 3 C-5.3 3.33 -8.6 3.66 -12 4 C-10.720327 1.44065399 -9.75798964 1.3010767 -7.125 0.3125 C-6.07699219 -0.09548828 -6.07699219 -0.09548828 -5.0078125 -0.51171875 C-3 -1 -3 -1 0 0 Z " fill="#557AE8" transform="translate(821,911)"/>
<path d="M0 0 C0.99 0.66 1.98 1.32 3 2 C1.68 2.33 0.36 2.66 -1 3 C-1 2.34 -1 1.68 -1 1 C-3.64 1.33 -6.28 1.66 -9 2 C-9.33 1.34 -9.66 0.68 -10 0 C-6.80429821 -1.59785089 -3.38635924 -0.77115111 0 0 Z " fill="#2143A2" transform="translate(802,159)"/>
<path d="M0 0 C3.48539917 0.64544429 6.02819057 2.10134397 9 4 C8.67 4.66 8.34 5.32 8 6 C4.63408134 4.55746343 2.48952921 2.66735273 0 0 Z " fill="#1B3EB4" transform="translate(219,891)"/>
<path d="M0 0 C1.32 0 2.64 0 4 0 C6 2 6 2 8 5 C4.28400809 5.20086443 3.22791555 5.1519437 0 3 C0 2.01 0 1.02 0 0 Z " fill="#3965E0" transform="translate(842,179)"/>
<path d="M0 0 C1.32 0 2.64 0 4 0 C2.74874616 3.75376152 1.4347596 4.24073289 -2 6 C-2.66 6 -3.32 6 -4 6 C-4 5.34 -4 4.68 -4 4 C-3.01 4 -2.02 4 -1 4 C-0.67 2.68 -0.34 1.36 0 0 Z " fill="#2A60BC" transform="translate(849,896)"/>
<path d="M0 0 C-0.3125 1.9375 -0.3125 1.9375 -1 4 C-1.99 4.33 -2.98 4.66 -4 5 C-4.99 4.34 -5.98 3.68 -7 3 C-2.25 0 -2.25 0 0 0 Z " fill="#5D89EF" transform="translate(857,892)"/>
<path d="M0 0 C2 3 2 3 1.625 5.1875 C1.41875 5.785625 1.2125 6.38375 1 7 C0.01 7 -0.98 7 -2 7 C-2.33 8.32 -2.66 9.64 -3 11 C-3.33 10.34 -3.66 9.68 -4 9 C-3.22265625 6.8359375 -3.22265625 6.8359375 -2.0625 4.375 C-1.68222656 3.55773437 -1.30195312 2.74046875 -0.91015625 1.8984375 C-0.60980469 1.27195312 -0.30945313 0.64546875 0 0 Z " fill="#6B7BD6" transform="translate(908,822)"/>
<path d="M0 0 C0 0.99 0 1.98 0 3 C0.99 3.33 1.98 3.66 3 4 C0.3333581 5.33332095 -1.16680303 4.67102033 -4 4 C-4 3.34 -4 2.68 -4 2 C-4.66 1.67 -5.32 1.34 -6 1 C-3.92446352 0.4465236 -2.15634036 0 0 0 Z " fill="#3C74E3" transform="translate(810,162)"/>
<path d="M0 0 C0.66 0.33 1.32 0.66 2 1 C-1.5087188 4.09592835 -4.49197399 5.74194623 -9 7 C-6.25604436 4.05278838 -3.61662784 1.80831392 0 0 Z " fill="#7E96E6" transform="translate(491,546)"/>
<path d="M0 0 C2.64 0.99 5.28 1.98 8 3 C5 5 5 5 2.8125 4.625 C2.214375 4.41875 1.61625 4.2125 1 4 C0.67 2.68 0.34 1.36 0 0 Z " fill="#1D53AB" transform="translate(821,166)"/>
<path d="M0 0 C0 0.99 0 1.98 0 3 C-2.875 3.625 -2.875 3.625 -6 4 C-6.66 3.34 -7.32 2.68 -8 2 C-2.25 0 -2.25 0 0 0 Z " fill="#1335AA" transform="translate(281,159)"/>
<path d="M0 0 C2.97 0.33 5.94 0.66 9 1 C8.67 1.99 8.34 2.98 8 4 C2.25 2.25 2.25 2.25 0 0 Z " fill="#1844A6" transform="translate(240,905)"/>
<path d="M0 0 C0.66 0.99 1.32 1.98 2 3 C1.01 4.98 0.02 6.96 -1 9 C-1.33 9 -1.66 9 -2 9 C-2.25 3.375 -2.25 3.375 0 0 Z " fill="#0C44D2" transform="translate(178,234)"/>
<path d="M0 0 C0.99 0.33 1.98 0.66 3 1 C2.34 3.31 1.68 5.62 1 8 C0.67 8 0.34 8 0 8 C-0.38063221 5.6739143 -0.71269945 3.33944736 -1 1 C-0.67 0.67 -0.34 0.34 0 0 Z " fill="#5070B5" transform="translate(912,818)"/>
<path d="M0 0 C0.33 0 0.66 0 1 0 C1 2.31 1 4.62 1 7 C-0.32 7.33 -1.64 7.66 -3 8 C-2.01 5.36 -1.02 2.72 0 0 Z " fill="#042FAD" transform="translate(169,251)"/>
<path d="M0 0 C2.99324263 1.0975223 3.84610901 1.67682892 5.25 4.625 C5.4975 5.40875 5.745 6.1925 6 7 C1.2 4.53846154 1.2 4.53846154 0.1875 1.8125 C0.125625 1.214375 0.06375 0.61625 0 0 Z " fill="#4F68D6" transform="translate(875,206)"/>
<path d="M0 0 C3.77545388 1.09068668 6.47043472 1.9083091 9 5 C4.98525763 5 3.18024863 3.33218233 0 1 C0 0.67 0 0.34 0 0 Z " fill="#4E6DD7" transform="translate(846,183)"/>
<path d="M0 0 C0.66 0.99 1.32 1.98 2 3 C-1 5 -1 5 -4 5 C-4 4.01 -4 3.02 -4 2 C-2.68 1.34 -1.36 0.68 0 0 Z " fill="#174AB8" transform="translate(243,173)"/>
</svg>
